<svg width="1280" height="360" viewBox="0 0 1280 360" fill="none" xmlns="http://www.w3.org/2000/svg">
  <rect width="1280" height="360" fill="#000"/>
  <text x="56" y="58" fill="#fff" font-family="Arial, Helvetica, sans-serif" font-size="26" font-weight="800" letter-spacing="1.5">PERFORMANCE ICON OPTIONS</text>
  <text x="56" y="86" fill="#a8a8a8" font-family="Arial, Helvetica, sans-serif" font-size="14" letter-spacing="2.6">BLACK / WHITE PREMIUM SET</text>

  <g transform="translate(56 125)">
    <rect width="270" height="150" rx="8" fill="#050505" stroke="#272727"/>
    <g transform="translate(35 43)" stroke="#d7d7d7" stroke-width="2.6" stroke-linecap="round" stroke-linejoin="round">
      <path d="M0 52H58"/>
      <path d="M8 42L22 28L34 36L54 11"/>
      <path d="M45 11H54V20"/>
    </g>
    <text x="112" y="65" fill="#a9a9a9" font-family="Arial, Helvetica, sans-serif" font-size="14" font-weight="800" letter-spacing="1.3">MONTHLY P&amp;L</text>
    <text x="112" y="96" fill="#fff" font-family="Arial, Helvetica, sans-serif" font-size="24" font-weight="900">+$18,732.40</text>
  </g>

  <g transform="translate(356 125)">
    <rect width="270" height="150" rx="8" fill="#050505" stroke="#272727"/>
    <g transform="translate(35 47)" stroke="#d7d7d7" stroke-width="2.6" stroke-linecap="round" stroke-linejoin="round">
      <path d="M0 8H58"/>
      <path d="M8 18L22 32L34 24L54 49"/>
      <path d="M45 49H54V40"/>
    </g>
    <text x="112" y="65" fill="#a9a9a9" font-family="Arial, Helvetica, sans-serif" font-size="14" font-weight="800" letter-spacing="1.3">MAX DRAWDOWN</text>
    <text x="112" y="96" fill="#fff" font-family="Arial, Helvetica, sans-serif" font-size="24" font-weight="900">-$2,310.00</text>
  </g>

  <g transform="translate(656 125)">
    <rect width="270" height="150" rx="8" fill="#050505" stroke="#272727"/>
    <g transform="translate(38 37)" stroke="#d7d7d7" stroke-width="2.6" stroke-linecap="round" stroke-linejoin="round">
      <path d="M33 0V70"/>
      <path d="M8 18H58"/>
      <path d="M17 18L4 46H30L17 18Z"/>
      <path d="M49 18L36 46H62L49 18Z"/>
      <path d="M20 70H46"/>
    </g>
    <text x="112" y="65" fill="#a9a9a9" font-family="Arial, Helvetica, sans-serif" font-size="14" font-weight="800" letter-spacing="1.3">PROFIT FACTOR</text>
    <text x="112" y="96" fill="#fff" font-family="Arial, Helvetica, sans-serif" font-size="24" font-weight="900">2.48</text>
  </g>

  <g transform="translate(956 125)">
    <rect width="270" height="150" rx="8" fill="#050505" stroke="#272727"/>
    <g transform="translate(38 34)" stroke="#d7d7d7" stroke-width="2.6" stroke-linecap="round" stroke-linejoin="round">
      <path d="M34 0L62 10V34C62 53 51 66 34 75C17 66 6 53 6 34V10L34 0Z"/>
      <path d="M19 42L29 32L38 40L51 22"/>
      <path d="M45 22H51V28"/>
    </g>
    <text x="112" y="65" fill="#a9a9a9" font-family="Arial, Helvetica, sans-serif" font-size="14" font-weight="800" letter-spacing="1.3">SHARPE RATIO</text>
    <text x="112" y="96" fill="#fff" font-family="Arial, Helvetica, sans-serif" font-size="24" font-weight="900">1.78</text>
  </g>
</svg>
